HIERARCHY
ROOT Hips
{
    OFFSET 0.000000 0.000000 0.000000
    CHANNELS 6 Xposition Yposition Zposition Zrotation Xrotation Yrotation
    JOINT Spine
    {
        OFFSET -0.000000 7.236184 0.000000
        CHANNELS 3 Zrotation Xrotation Yrotation
        JOINT Spine1
        {
            OFFSET -0.000000 20.420147 0.000000
            CHANNELS 3 Zrotation Xrotation Yrotation
            JOINT Neck
            {
                OFFSET -0.000000 20.336288 1.848754
                CHANNELS 3 Zrotation Xrotation Yrotation
                JOINT Head
                {
                    OFFSET -0.000000 12.354461 -1.764923
                    CHANNELS 3 Zrotation Xrotation Yrotation
                    End Site
                    {
                        OFFSET -0.000000 22.061537 0.000000
                    }
                }
            }
            JOINT LeftShoulder
            {
                OFFSET 3.573296 18.396038 -0.314103
                CHANNELS 3 Zrotation Xrotation Yrotation
                JOINT LeftArm
                {
                    OFFSET 10.880760 0.000000 0.000000
                    CHANNELS 3 Zrotation Xrotation Yrotation
                    JOINT LeftForeArm
                    {
                        OFFSET 27.185530 0.000000 0.000000
                        CHANNELS 3 Zrotation Xrotation Yrotation
                        JOINT LeftHand
                        {
                            OFFSET 27.825975 0.000000 0.000000
                            CHANNELS 3 Zrotation Xrotation Yrotation
                            End Site
                            {
                                OFFSET 13.236923 0.000000 0.000000
                            }
                        }
                    }
                }
            }
            JOINT RightShoulder
            {
                OFFSET -3.474926 18.396038 -0.314103
                CHANNELS 3 Zrotation Xrotation Yrotation
                JOINT RightArm
                {
                    OFFSET -10.880760 0.000000 0.000000
                    CHANNELS 3 Zrotation Xrotation Yrotation
                    JOINT RightForeArm
                    {
                        OFFSET -27.185530 0.000000 0.000000
                        CHANNELS 3 Zrotation Xrotation Yrotation
                        JOINT RightHand
                        {
                            OFFSET -27.825975 0.000000 0.000000
                            CHANNELS 3 Zrotation Xrotation Yrotation
                            End Site
                            {
                                OFFSET -13.236923 0.000000 0.000000
                            }
                        }
                    }
                }
            }
        }
    }
    JOINT LeftUpLeg
    {
        OFFSET 8.824615 0.000000 0.000000
        CHANNELS 3 Zrotation Xrotation Yrotation
        JOINT LeftLeg
        {
            OFFSET -0.000000 -35.111282 0.000000
            CHANNELS 3 Zrotation Xrotation Yrotation
            JOINT LeftFoot
            {
                OFFSET -0.000000 -42.324711 0.000000
                CHANNELS 3 Zrotation Xrotation Yrotation
                JOINT LeftToeBase
                {
                    OFFSET -0.000000 -5.735999 13.236923
                    CHANNELS 3 Zrotation Xrotation Yrotation
                    End Site
                    {
                        OFFSET -0.000000 0.000000 3.529846
                    }
                }
            }
        }
    }
    JOINT RightUpLeg
    {
        OFFSET -8.824615 0.000000 0.000000
        CHANNELS 3 Zrotation Xrotation Yrotation
        JOINT RightLeg
        {
            OFFSET -0.000000 -35.111282 0.000000
            CHANNELS 3 Zrotation Xrotation Yrotation
            JOINT RightFoot
            {
                OFFSET -0.000000 -42.324711 0.000000
                CHANNELS 3 Zrotation Xrotation Yrotation
                JOINT RightToeBase
                {
                    OFFSET -0.000000 -5.735999 13.236923
                    CHANNELS 3 Zrotation Xrotation Yrotation
                    End Site
                    {
                        OFFSET -0.000000 0.000000 3.529846
                    }
                }
            }
        }
    }
}
MOTION
Frames:    11
Frame Time:    0.008333
-2.348234    81.388962    110.125824    -1.985336    -6.474629    -163.672516    -2.132766    -10.406374    0.037110    1.139331    12.046932    0.111266    1.390365    10.691896    -2.417006    2.676289    6.084975    -2.347262    3.781700    12.580505    -19.525171    -40.397591    23.374300    -64.664413    1.692747    -36.788551    -128.810059    36.733902    -30.073074    13.550464    -0.321526    7.686151    11.926401    52.856094    1.818784    58.080727    4.612028    -33.622341    142.652939    -25.747753    -42.202366    -12.287642    6.625398    -23.264877    0.760454    -1.222038    32.232246    15.637489    -10.131965    -2.813899    -14.440149    -0.672017    -3.856073    0.750278    -11.878573    -13.848227    -12.455677    11.363319    33.828098    -12.192329    -4.924707    -16.231190    -29.895330    20.612123    -67.963860    -30.591171    
-2.386849    81.201660    110.140015    -1.617148    -6.426901    -161.927582    -2.112803    -10.414417    0.092403    1.474446    12.282956    0.126522    1.147669    11.227210    -2.785848    2.626161    5.067203    -2.694240    3.772720    12.430694    -19.183567    -40.030983    23.992598    -65.170326    1.690208    -36.831219    -128.712143    36.846180    -30.083899    13.665669    -0.006020    8.406093    11.972308    52.985069    1.615723    57.545071    4.684433    -32.821091    143.191864    -25.406021    -41.905529    -11.935151    6.433168    -23.744001    0.197647    -0.947806    32.440617    14.850884    -10.177684    -3.530111    -14.448696    -0.573056    -3.404211    0.639237    -11.869522    -13.850253    -12.993115    11.599748    34.586536    -12.766543    -4.711685    -16.631567    -30.121435    20.497507    -67.791702    -30.328831    
-2.433117    81.019478    110.143127    -1.250979    -6.357166    -160.117081    -2.102136    -10.426792    0.144633    1.812236    12.503664    0.137941    0.909980    11.814582    -3.172630    2.623215    3.990532    -3.056545    3.776742    12.219872    -18.777596    -39.634953    24.474844    -65.691368    1.658450    -36.815395    -128.540817    36.954937    -30.086496    13.789935    0.354065    9.178226    11.932258    53.028988    1.284410    56.821575    4.748735    -31.934349    143.653336    -25.010920    -41.511333    -11.557304    6.202209    -24.235588    -0.446874    -0.651713    32.668186    13.993442    -10.247138    -4.209879    -14.476251    -0.462206    -2.953424    0.515143    -11.858202    -13.776581    -13.487074    11.859662    35.274178    -13.362473    -4.486840    -17.020868    -30.340343    20.377214    -67.610031    -30.055939    
-2.487121    80.847404    110.134819    -0.892767    -6.268896    -158.263626    -2.103155    -10.444944    0.190713    2.145223    12.705410    0.144200    0.678797    12.433050    -3.573203    2.680702    2.879015    -3.428013    3.792842    11.962860    -18.326349    -39.207417    24.828051    -66.228905    1.596278    -36.749126    -128.301743    37.061752    -30.089155    13.926385    0.755522    9.980009    11.797356    52.994770    0.811645    55.913757    4.796175    -30.999174    144.026199    -24.560278    -41.024551    -11.152696    5.933264    -24.732193    -1.157431    -0.336913    32.907608    13.072946    -10.336982    -4.837663    -14.520677    -0.341843    -2.517741    0.380680    -11.841109    -13.623496    -13.928608    12.143381    35.867805    -13.977115    -4.257831    -17.389818    -30.550026    20.253609    -67.423065    -29.778276    
-2.550010    80.686447    110.115204    -0.540205    -6.165105    -156.352310    -2.117773    -10.469439    0.229328    2.473252    12.886582    0.144145    0.451948    13.076507    -3.990880    2.806385    1.732788    -3.809366    3.820866    11.672706    -17.842136    -38.738819    25.072748    -66.793098    1.505171    -36.642441    -127.998268    37.168537    -30.097933    14.076919    1.200137    10.803099    11.561106    52.888382    0.182160    54.811726    4.821576    -30.037359    144.313004    -24.048372    -40.448105    -10.715437    5.622595    -25.236086    -1.929291    -0.000488    33.153961    12.081253    -10.443967    -5.412539    -14.580970    -0.211539    -2.101407    0.235388    -11.814991    -13.389032    -14.321662    12.455888    36.361637    -14.619476    -4.027843    -17.736965    -30.753355    20.126179    -67.231461    -29.495787    
-2.622739    80.538521    110.084595    -0.192849    -6.049555    -154.379654    -2.148031    -10.499367    0.259234    2.794303    13.041861    0.137203    0.229901    13.736515    -4.426142    3.003900    0.559384    -4.198844    3.860784    11.363624    -17.339787    -38.226044    25.226696    -67.386742    1.387349    -36.502106    -127.636818    37.274178    -30.114792    14.239255    1.684943    11.632141    11.218493    52.714371    -0.613288    53.508854    4.822013    -29.073435    144.516083    -23.474358    -39.791462    -10.244205    5.268330    -25.745707    -2.751390    0.358822    33.399254    11.015469    -10.563437    -5.929266    -14.657022    -0.071522    -1.711534    0.079528    -11.776778    -13.074070    -14.669040    12.798466    36.748520    -15.293701    -3.801604    -18.057959    -30.951504    19.995350    -67.037460    -29.210276    
-2.705785    80.405930    110.043625    0.148773    -5.926402    -152.352371    -2.195016    -10.533308    0.279587    3.104663    13.165474    0.123615    0.017105    14.402410    -4.876613    3.268672    -0.628257    -4.592841    3.914374    11.050745    -16.835632    -37.673508    25.306236    -68.006714    1.245901    -36.332325    -127.228630    37.375317    -30.138451    14.407391    2.200677    12.446228    10.768418    52.474628    -1.571711    52.006397    4.796190    -28.138559    144.638092    -22.842688    -39.073246    -9.742766    4.871617    -26.256374    -3.606199    0.740947    33.633373    9.878080    -10.689515    -6.380651    -14.749757    0.077137    -1.356449    -0.085716    -11.723429    -12.683725    -14.973589    13.168340    37.023426    -15.998731    -3.584506    -18.346695    -31.144495    19.862663    -66.843430    -28.925142    
-2.799923    80.289948    109.992935    0.486598    -5.799098    -150.266144    -2.259232    -10.569638    0.290195    3.401555    13.253048    0.104086    -0.183038    15.067773    -5.341787    3.594964    -1.824418    -4.989728    3.984002    10.745111    -16.340891    -37.086655    25.327793    -68.648773    1.082994    -36.132771    -126.785378    37.466816    -30.165545    14.574930    2.737955    13.226766    10.208808    52.161972    -2.682186    50.295849    4.742287    -27.265949    144.682739    -22.156065    -38.314205    -9.213760    4.432717    -26.766312    -4.479712    1.147444    33.847149    8.665389    -10.816830    -6.762957    -14.861395    0.232838    -1.039112    -0.258581    -11.652025    -12.223631    -15.241269    13.562449    37.187019    -16.734442    -3.380419    -18.598064    -31.333696    19.728611    -66.650269    -28.641396    
-2.904769    80.192642    109.933769    0.819891    -5.671986    -148.137222    -2.339044    -10.606863    0.291360    3.677657    13.301247    0.079685    -0.365087    15.720455    -5.815900    3.971577    -3.011938    -5.383760    4.072134    10.458245    -15.867439    -36.478062    25.306400    -69.300446    0.901695    -35.903332    -126.325287    37.541969    -30.192339    14.733237    3.281015    13.947662    9.544884    51.766506    -3.910779    48.385902    4.658880    -26.499605    144.651688    -21.424934    -37.545555    -8.665863    3.957428    -27.269011    -5.348878    1.575736    34.029591    7.385080    -10.939724    -7.070835    -14.993440    0.392277    -0.762550    -0.435427    -11.560859    -11.706214    -15.476225    13.972523    37.243114    -17.490761    -3.193958    -18.804380    -31.518963    19.595278    -66.460144    -28.362961    
-3.021575    80.114449    109.866402    1.154147    -5.546806    -145.946167    -2.432571    -10.644277    0.283030    3.928484    13.308550    0.051192    -0.528912    16.360697    -6.300131    4.394951    -4.194362    -5.774922    4.182954    10.194193    -15.415841    -35.852577    25.255409    -69.956245    0.700379    -35.637684    -125.861412    37.593792    -30.215553    14.877105    3.820976    14.595864    8.772800    51.269367    -5.237558    46.253036    4.543778    -25.866999    144.543365    -20.648855    -36.784454    -8.098490    3.444871    -27.766569    -6.206001    2.029256    34.172817    6.023211    -11.055573    -7.306070    -15.149045    0.554769    -0.522465    -0.615523    -11.446901    -11.136348    -15.685218    14.396491    37.198330    -18.268740    -3.025446    -18.960634    -31.703270    19.462044    -66.272377    -28.088457    
-3.147739    80.057945    109.792984    1.485175    -5.427682    -143.741928    -2.533176    -10.680558    0.265310    4.141031    13.275293    0.020194    -0.670732    16.972458    -6.779984    4.848464    -5.340883    -6.150689    4.315769    9.961873    -14.996387    -35.232563    25.188404    -70.588829    0.483218    -35.338570    -125.420494    37.614979    -30.234125    14.998269    4.332536    15.142855    7.915993    50.667793    -6.597345    43.943401    4.398412    -25.405758    144.356979    -19.852240    -36.065666    -7.528195    2.912467    -28.244726    -7.018583    2.495280    34.264271    4.609008    -11.159704    -7.466062    -15.325613    0.715503    -0.320579    -0.793568    -11.310455    -10.536679    -15.865770    14.820287    37.062912    -19.044802    -2.879879    -19.056992    -31.884598    19.332775    -66.091690    -27.825232    
